<svg xmlns="http://www.w3.org/2000/svg" version="1.1" viewBox="-5.0 -10.0 110.0 135.0">
 <path d="m71.961 22.012h-4.7695v-1.9492c0-0.98047-0.78906-1.7695-1.7695-1.7695s-1.7695 0.78906-1.7695 1.7695v1.9492h-27.301v-1.9492c0-0.98047-0.78906-1.7695-1.7695-1.7695s-1.7695 0.78906-1.7695 1.7695v1.9492h-4.7695c-5.1406 0-9.3281 4.1797-9.3281 9.3281v41.051c0 5.1406 4.1797 9.3281 9.3281 9.3281h43.922c5.1406 0 9.3281-4.1797 9.3281-9.3281l-0.003907-41.051c0-5.1484-4.1875-9.3281-9.3281-9.3281zm5.7773 50.379c0 3.1914-2.5898 5.7812-5.7812 5.7812h-43.918c-3.1914 0-5.7812-2.5898-5.7812-5.7812l0.003907-30.242h55.48zm0-33.789h-55.477v-7.2617c0-3.1914 2.5898-5.7812 5.7812-5.7812h4.7695v1.9492c0 0.98047 0.78906 1.7695 1.7695 1.7695s1.7695-0.78906 1.7695-1.7695v-1.9492h27.301v1.9492c0 0.98047 0.78906 1.7695 1.7695 1.7695s1.7695-0.78906 1.7695-1.7695v-1.9492h4.7695c3.1914 0 5.7812 2.5898 5.7812 5.7812z"/>
 <path d="m31.852 58.469h3.4805c2.2891 0 4.1484-1.8594 4.1484-4.1484v-3.2812c0-2.2891-1.8594-4.1484-4.1484-4.1484h-3.4805c-2.2891 0-4.1484 1.8594-4.1484 4.1484v3.2812c-0.003906 2.2891 1.8555 4.1484 4.1484 4.1484z"/>
 <path d="m48.262 58.469h3.4805c2.2891 0 4.1484-1.8594 4.1484-4.1484v-3.2812c0-2.2891-1.8594-4.1484-4.1484-4.1484h-3.4805c-2.2891 0-4.1484 1.8594-4.1484 4.1484v3.2812c-0.003906 2.2891 1.8555 4.1484 4.1484 4.1484z"/>
 <path d="m64.672 58.469h3.4805c2.2891 0 4.1484-1.8594 4.1484-4.1484v-3.2812c0-2.2891-1.8594-4.1484-4.1484-4.1484h-3.4805c-2.2891 0-4.1484 1.8594-4.1484 4.1484v3.2812c-0.003907 2.2891 1.8555 4.1484 4.1484 4.1484z"/>
 <path d="m31.852 73.891h3.4805c2.2891 0 4.1484-1.8594 4.1484-4.1484v-3.2812c0-2.2891-1.8594-4.1484-4.1484-4.1484h-3.4805c-2.2891 0-4.1484 1.8594-4.1484 4.1484v3.2812c-0.003906 2.2891 1.8555 4.1484 4.1484 4.1484z"/>
 <path d="m48.262 73.891h3.4805c2.2891 0 4.1484-1.8594 4.1484-4.1484v-3.2812c0-2.2891-1.8594-4.1484-4.1484-4.1484h-3.4805c-2.2891 0-4.1484 1.8594-4.1484 4.1484v3.2812c-0.003906 2.2891 1.8555 4.1484 4.1484 4.1484z"/>
 <path d="m64.672 73.891h3.4805c2.2891 0 4.1484-1.8594 4.1484-4.1484v-3.2812c0-2.2891-1.8594-4.1484-4.1484-4.1484h-3.4805c-2.2891 0-4.1484 1.8594-4.1484 4.1484v3.2812c-0.003907 2.2891 1.8555 4.1484 4.1484 4.1484z"/>
<text x="0.0" y="117.5" font-size="5.0" font-weight="bold" font-family="Arbeit Regular, Helvetica, Arial-Unicode, Arial, Sans-serif" fill="#000000">Created by Lordz</text><text x="0.0" y="122.5" font-size="5.0" font-weight="bold" font-family="Arbeit Regular, Helvetica, Arial-Unicode, Arial, Sans-serif" fill="#000000">from Noun Project</text></svg>